<mxfile host="app.diagrams.net" modified="2024-05-23T18:11:09.746Z" agent="Mozilla/5.0 (Windows NT 10.0; Win64; x64) AppleWebKit/537.36 (KHTML, like Gecko) Chrome/124.0.0.0 Safari/537.36" etag="xG_rOnWlm2QWGXeTDwED" version="24.4.6" type="github">
  <diagram name="Page-1" id="T_TUrl57_qO42ONMsJEx">
    <mxGraphModel dx="2049" dy="747" grid="0" gridSize="10" guides="1" tooltips="1" connect="1" arrows="1" fold="1" page="0" pageScale="1" pageWidth="827" pageHeight="1169" math="0" shadow="0">
      <root>
        <mxCell id="0" />
        <mxCell id="1" parent="0" />
        <mxCell id="k6tlBCFo0J_A2OAQhTOj-1" value="&lt;p style=&quot;margin:0px;margin-top:4px;text-align:center;&quot;&gt;&amp;lt;&amp;lt;requirement&amp;gt;&amp;gt;&lt;br&gt;&lt;b&gt;See list of appointments&lt;/b&gt;&lt;/p&gt;&lt;hr&gt;&lt;p&gt;&lt;/p&gt;&lt;p style=&quot;margin:0px;margin-left:8px;text-align:left;&quot;&gt;&lt;b&gt;Text&amp;nbsp;&lt;/b&gt;=&quot;Users should be able to see the list scheduled appointments&quot;&lt;br&gt;&lt;b&gt;Id&amp;nbsp; &amp;nbsp; &amp;nbsp;&lt;/b&gt;=&quot;11.0&quot;&lt;/p&gt;" style="shape=rect;overflow=fill;html=1;whiteSpace=wrap;align=center;" parent="1" vertex="1">
          <mxGeometry x="755" y="666" width="200" height="112" as="geometry" />
        </mxCell>
        <mxCell id="k6tlBCFo0J_A2OAQhTOj-3" value="" style="endArrow=circlePlus;html=1;rounded=0;strokeWidth=1;endFill=0;entryX=0.5;entryY=1;entryDx=0;entryDy=0;exitX=0.5;exitY=0;exitDx=0;exitDy=0;edgeStyle=orthogonalEdgeStyle;" parent="1" source="k6tlBCFo0J_A2OAQhTOj-5" target="k6tlBCFo0J_A2OAQhTOj-1" edge="1">
          <mxGeometry width="50" height="50" relative="1" as="geometry">
            <mxPoint x="505" y="868" as="sourcePoint" />
            <mxPoint x="704.3752791878175" y="805" as="targetPoint" />
          </mxGeometry>
        </mxCell>
        <mxCell id="k6tlBCFo0J_A2OAQhTOj-4" value="" style="endArrow=circlePlus;html=1;rounded=0;strokeWidth=1;endFill=0;entryX=0.5;entryY=1;entryDx=0;entryDy=0;exitX=0.5;exitY=0;exitDx=0;exitDy=0;edgeStyle=orthogonalEdgeStyle;" parent="1" source="k6tlBCFo0J_A2OAQhTOj-7" target="k6tlBCFo0J_A2OAQhTOj-1" edge="1">
          <mxGeometry width="50" height="50" relative="1" as="geometry">
            <mxPoint x="1526" y="868" as="sourcePoint" />
            <mxPoint x="711" y="781" as="targetPoint" />
          </mxGeometry>
        </mxCell>
        <mxCell id="k6tlBCFo0J_A2OAQhTOj-5" value="&lt;p style=&quot;margin:0px;margin-top:4px;text-align:center;&quot;&gt;&amp;lt;&amp;lt;requirement&amp;gt;&amp;gt;&lt;br&gt;&lt;b&gt;Validate details&lt;/b&gt;&lt;/p&gt;&lt;hr&gt;&lt;p&gt;&lt;/p&gt;&lt;p style=&quot;margin:0px;margin-left:8px;text-align:left;&quot;&gt;&lt;b&gt;Text&amp;nbsp;&lt;/b&gt;= &quot;Inputs should be verified for correct error handling&quot;&lt;br&gt;&lt;b&gt;Id&amp;nbsp; &amp;nbsp; &amp;nbsp;&lt;/b&gt;= &quot;11.2&quot;&lt;/p&gt;" style="shape=rect;overflow=fill;html=1;whiteSpace=wrap;align=center;" parent="1" vertex="1">
          <mxGeometry x="324" y="868" width="200" height="100" as="geometry" />
        </mxCell>
        <mxCell id="k6tlBCFo0J_A2OAQhTOj-7" value="&lt;p style=&quot;margin:0px;margin-top:4px;text-align:center;&quot;&gt;&amp;lt;&amp;lt;requirement&amp;gt;&amp;gt;&lt;br&gt;&lt;b&gt;Display appointments&lt;/b&gt;&lt;/p&gt;&lt;hr&gt;&lt;p&gt;&lt;/p&gt;&lt;p style=&quot;margin:0px;margin-left:8px;text-align:left;&quot;&gt;&lt;b&gt;Text&amp;nbsp;&lt;/b&gt;= &quot;Users should be able to see the appointments information&quot;&lt;br&gt;&lt;b&gt;Id&amp;nbsp; &amp;nbsp; &amp;nbsp;&lt;/b&gt;= &quot;11.6&quot;&lt;/p&gt;" style="shape=rect;overflow=fill;html=1;whiteSpace=wrap;align=center;" parent="1" vertex="1">
          <mxGeometry x="1479" y="868" width="200" height="132" as="geometry" />
        </mxCell>
        <mxCell id="k6tlBCFo0J_A2OAQhTOj-8" value="Display message" style="shape=ellipse;html=1;strokeWidth=3;fontStyle=1;whiteSpace=wrap;align=center;perimeter=ellipsePerimeter;fillColor=#CDA2BE;" parent="1" vertex="1">
          <mxGeometry x="1328" y="1059" width="138" height="60" as="geometry" />
        </mxCell>
        <mxCell id="k6tlBCFo0J_A2OAQhTOj-9" value="&lt;font style=&quot;font-size: 12px;&quot;&gt;&lt;b&gt;&amp;lt;&amp;lt; Refine &amp;gt;&amp;gt;&lt;/b&gt;&lt;/font&gt;" style="edgeStyle=none;html=1;endArrow=open;endSize=12;dashed=1;verticalAlign=bottom;rounded=0;strokeWidth=2;" parent="1" source="k6tlBCFo0J_A2OAQhTOj-8" target="k6tlBCFo0J_A2OAQhTOj-30" edge="1">
          <mxGeometry x="-0.2659" y="-2" width="160" relative="1" as="geometry">
            <mxPoint x="1169" y="1056" as="sourcePoint" />
            <mxPoint x="1242" y="968" as="targetPoint" />
            <mxPoint as="offset" />
          </mxGeometry>
        </mxCell>
        <mxCell id="k6tlBCFo0J_A2OAQhTOj-10" value="&lt;p style=&quot;margin:0px;margin-top:4px;text-align:center;&quot;&gt;&amp;lt;&amp;lt;requirement&amp;gt;&amp;gt;&lt;br&gt;&lt;b&gt;Provide details&lt;/b&gt;&lt;/p&gt;&lt;hr&gt;&lt;p&gt;&lt;/p&gt;&lt;p style=&quot;margin:0px;margin-left:8px;text-align:left;&quot;&gt;&lt;b&gt;Text&amp;nbsp;&lt;/b&gt;= &quot;Users should provide the appointment search parameters&quot;&lt;br&gt;&lt;b&gt;Id&amp;nbsp; &amp;nbsp; &amp;nbsp;&lt;/b&gt;= &quot;11.1&quot;&lt;/p&gt;" style="shape=rect;overflow=fill;html=1;whiteSpace=wrap;align=center;" parent="1" vertex="1">
          <mxGeometry x="25" y="868" width="200" height="100" as="geometry" />
        </mxCell>
        <mxCell id="k6tlBCFo0J_A2OAQhTOj-11" value="" style="endArrow=circlePlus;html=1;rounded=0;strokeWidth=1;endFill=0;entryX=0.5;entryY=1;entryDx=0;entryDy=0;exitX=0.5;exitY=0;exitDx=0;exitDy=0;edgeStyle=orthogonalEdgeStyle;" parent="1" source="k6tlBCFo0J_A2OAQhTOj-10" target="k6tlBCFo0J_A2OAQhTOj-1" edge="1">
          <mxGeometry width="50" height="50" relative="1" as="geometry">
            <mxPoint x="525" y="878" as="sourcePoint" />
            <mxPoint x="1234" y="781" as="targetPoint" />
          </mxGeometry>
        </mxCell>
        <mxCell id="k6tlBCFo0J_A2OAQhTOj-12" value="&amp;lt;&amp;lt; &lt;b&gt;Block &lt;/b&gt;&amp;gt;&amp;gt;&lt;div&gt;&lt;br&gt;&lt;b&gt;Validation controller&lt;/b&gt;&lt;/div&gt;" style="shape=rect;html=1;whiteSpace=wrap;align=center;verticalAlign=top;fillColor=#FFF2CC;" parent="1" vertex="1">
          <mxGeometry x="251" y="1213" width="130" height="60" as="geometry" />
        </mxCell>
        <mxCell id="k6tlBCFo0J_A2OAQhTOj-13" value="&lt;font style=&quot;font-size: 12px;&quot;&gt;&lt;b&gt;&amp;lt;&amp;lt; Satisfy &amp;gt;&amp;gt;&lt;/b&gt;&lt;/font&gt;" style="edgeStyle=none;html=1;endArrow=open;endSize=12;dashed=1;verticalAlign=bottom;rounded=0;strokeWidth=2;" parent="1" source="k6tlBCFo0J_A2OAQhTOj-12" target="l1gCy3AUZsN4wNy_-pV3-4" edge="1">
          <mxGeometry x="-0.375" y="-2" width="160" relative="1" as="geometry">
            <mxPoint x="353" y="1095" as="sourcePoint" />
            <mxPoint x="270" y="1143" as="targetPoint" />
            <mxPoint as="offset" />
          </mxGeometry>
        </mxCell>
        <mxCell id="k6tlBCFo0J_A2OAQhTOj-14" value="&amp;lt;&amp;lt; &lt;b&gt;Block &lt;/b&gt;&amp;gt;&amp;gt;&lt;div&gt;&lt;br&gt;&lt;b&gt;Appointment controller&lt;/b&gt;&lt;/div&gt;" style="shape=rect;html=1;whiteSpace=wrap;align=center;verticalAlign=top;fillColor=#FFF2CC;" parent="1" vertex="1">
          <mxGeometry x="673" y="1052" width="159" height="60" as="geometry" />
        </mxCell>
        <mxCell id="k6tlBCFo0J_A2OAQhTOj-16" value="&amp;lt;&amp;lt; &lt;b&gt;Block &lt;/b&gt;&amp;gt;&amp;gt;&lt;div&gt;&lt;br&gt;&lt;b&gt;Interface controller&lt;/b&gt;&lt;/div&gt;" style="shape=rect;html=1;whiteSpace=wrap;align=center;verticalAlign=top;fillColor=#FFF2CC;" parent="1" vertex="1">
          <mxGeometry x="1257" y="727" width="120" height="60" as="geometry" />
        </mxCell>
        <mxCell id="k6tlBCFo0J_A2OAQhTOj-17" value="&lt;font style=&quot;font-size: 12px;&quot;&gt;&lt;b&gt;&amp;lt;&amp;lt; Satisfy &amp;gt;&amp;gt;&lt;/b&gt;&lt;/font&gt;" style="edgeStyle=none;html=1;endArrow=open;endSize=12;dashed=1;verticalAlign=bottom;rounded=0;strokeWidth=2;" parent="1" source="k6tlBCFo0J_A2OAQhTOj-16" target="k6tlBCFo0J_A2OAQhTOj-7" edge="1">
          <mxGeometry x="-0.3505" y="-3" width="160" relative="1" as="geometry">
            <mxPoint x="1555" y="1191" as="sourcePoint" />
            <mxPoint x="1599" y="1097" as="targetPoint" />
            <mxPoint as="offset" />
          </mxGeometry>
        </mxCell>
        <mxCell id="k6tlBCFo0J_A2OAQhTOj-18" style="rounded=0;orthogonalLoop=1;jettySize=auto;html=1;endArrow=none;endFill=0;dashed=1;strokeWidth=2;" parent="1" source="k6tlBCFo0J_A2OAQhTOj-23" target="k6tlBCFo0J_A2OAQhTOj-30" edge="1">
          <mxGeometry relative="1" as="geometry">
            <mxPoint x="1192" y="1188" as="sourcePoint" />
            <mxPoint x="896.2116182572613" y="969.9999999999999" as="targetPoint" />
          </mxGeometry>
        </mxCell>
        <mxCell id="k6tlBCFo0J_A2OAQhTOj-19" value="&lt;span style=&quot;background-color: initial;&quot;&gt;&lt;b&gt;&amp;lt;&amp;lt; Problem &amp;gt;&amp;gt;&lt;/b&gt;&lt;/span&gt;&lt;div&gt;&lt;div style=&quot;font-weight: bold; text-align: left;&quot;&gt;&lt;br&gt;&lt;/div&gt;&lt;div style=&quot;&quot;&gt;User doesn&#39;t have appointments for the specified search parameters&lt;/div&gt;&lt;/div&gt;" style="shape=note;size=15;align=center;spacingLeft=0;html=1;whiteSpace=wrap;verticalAlign=top;strokeWidth=2;" parent="1" vertex="1">
          <mxGeometry x="867" y="1038" width="173" height="81" as="geometry" />
        </mxCell>
        <mxCell id="k6tlBCFo0J_A2OAQhTOj-23" value="&lt;span style=&quot;background-color: initial;&quot;&gt;&lt;b&gt;&amp;lt;&amp;lt; Rationale &amp;gt;&amp;gt;&lt;/b&gt;&lt;/span&gt;&lt;div&gt;&lt;div style=&quot;font-weight: bold; text-align: left;&quot;&gt;&lt;br&gt;&lt;/div&gt;&lt;div style=&quot;&quot;&gt;Used when there aren&#39;t appointment for the specified search parameters&lt;/div&gt;&lt;/div&gt;" style="shape=note;size=15;align=center;spacingLeft=0;html=1;whiteSpace=wrap;verticalAlign=top;strokeWidth=2;" parent="1" vertex="1">
          <mxGeometry x="1057" y="1038" width="173" height="81" as="geometry" />
        </mxCell>
        <mxCell id="k6tlBCFo0J_A2OAQhTOj-24" style="rounded=0;orthogonalLoop=1;jettySize=auto;html=1;endArrow=none;endFill=0;dashed=1;strokeWidth=2;" parent="1" source="k6tlBCFo0J_A2OAQhTOj-19" target="k6tlBCFo0J_A2OAQhTOj-29" edge="1">
          <mxGeometry relative="1" as="geometry">
            <mxPoint x="1087" y="1251" as="sourcePoint" />
            <mxPoint x="1181" y="968" as="targetPoint" />
          </mxGeometry>
        </mxCell>
        <mxCell id="k6tlBCFo0J_A2OAQhTOj-28" value="" style="endArrow=circlePlus;html=1;rounded=0;strokeWidth=1;endFill=0;entryX=0.5;entryY=1;entryDx=0;entryDy=0;exitX=0.5;exitY=0;exitDx=0;exitDy=0;edgeStyle=orthogonalEdgeStyle;" parent="1" source="k6tlBCFo0J_A2OAQhTOj-29" target="k6tlBCFo0J_A2OAQhTOj-1" edge="1">
          <mxGeometry width="50" height="50" relative="1" as="geometry">
            <mxPoint x="856.9999999999998" y="869.9999999999999" as="sourcePoint" />
            <mxPoint x="906" y="782" as="targetPoint" />
          </mxGeometry>
        </mxCell>
        <mxCell id="k6tlBCFo0J_A2OAQhTOj-29" value="&lt;p style=&quot;margin:0px;margin-top:4px;text-align:center;&quot;&gt;&amp;lt;&amp;lt;requirement&amp;gt;&amp;gt;&lt;br&gt;&lt;b&gt;Obtain appointments information&lt;/b&gt;&lt;/p&gt;&lt;hr&gt;&lt;p&gt;&lt;/p&gt;&lt;p style=&quot;margin:0px;margin-left:8px;text-align:left;&quot;&gt;&lt;b&gt;Text&amp;nbsp;&lt;/b&gt;= &quot;Retrieve appointments based on the search parameters&quot;&lt;br&gt;&lt;b&gt;Id&amp;nbsp; &amp;nbsp; &amp;nbsp;&lt;/b&gt;= &quot;11.4&quot;&lt;/p&gt;" style="shape=rect;overflow=fill;html=1;whiteSpace=wrap;align=center;" parent="1" vertex="1">
          <mxGeometry x="755" y="868" width="200" height="113" as="geometry" />
        </mxCell>
        <mxCell id="k6tlBCFo0J_A2OAQhTOj-30" value="&lt;p style=&quot;margin:0px;margin-top:4px;text-align:center;&quot;&gt;&amp;lt;&amp;lt;requirement&amp;gt;&amp;gt;&lt;br&gt;&lt;b&gt;Display appropriate message&lt;/b&gt;&lt;/p&gt;&lt;hr&gt;&lt;p&gt;&lt;/p&gt;&lt;p style=&quot;margin:0px;margin-left:8px;text-align:left;&quot;&gt;&lt;b&gt;Text&amp;nbsp;&lt;/b&gt;= &quot;Display appropriate message if there aren&#39;t appointments based on the search parameters&quot;&lt;br&gt;&lt;b&gt;Id&amp;nbsp; &amp;nbsp; &amp;nbsp;&lt;/b&gt;= &quot;11.5&quot;&lt;/p&gt;" style="shape=rect;overflow=fill;html=1;whiteSpace=wrap;align=center;" parent="1" vertex="1">
          <mxGeometry x="1000" y="868" width="220" height="113" as="geometry" />
        </mxCell>
        <mxCell id="k6tlBCFo0J_A2OAQhTOj-31" value="&lt;font style=&quot;font-size: 12px;&quot;&gt;&lt;b&gt;&amp;lt;&amp;lt; Satisfy &amp;gt;&amp;gt;&lt;/b&gt;&lt;/font&gt;" style="edgeStyle=none;html=1;endArrow=open;endSize=12;dashed=1;verticalAlign=bottom;rounded=0;strokeWidth=2;" parent="1" source="k6tlBCFo0J_A2OAQhTOj-14" target="k6tlBCFo0J_A2OAQhTOj-29" edge="1">
          <mxGeometry x="-0.1389" y="-12" width="160" relative="1" as="geometry">
            <mxPoint x="391" y="1062" as="sourcePoint" />
            <mxPoint x="391" y="978" as="targetPoint" />
            <mxPoint as="offset" />
          </mxGeometry>
        </mxCell>
        <mxCell id="k6tlBCFo0J_A2OAQhTOj-32" value="" style="endArrow=circlePlus;html=1;rounded=0;strokeWidth=1;endFill=0;entryX=0.5;entryY=1;entryDx=0;entryDy=0;exitX=0.5;exitY=0;exitDx=0;exitDy=0;edgeStyle=orthogonalEdgeStyle;" parent="1" source="k6tlBCFo0J_A2OAQhTOj-30" target="k6tlBCFo0J_A2OAQhTOj-1" edge="1">
          <mxGeometry width="50" height="50" relative="1" as="geometry">
            <mxPoint x="865" y="878" as="sourcePoint" />
            <mxPoint x="906" y="782" as="targetPoint" />
          </mxGeometry>
        </mxCell>
        <mxCell id="k6tlBCFo0J_A2OAQhTOj-33" value="&amp;lt;&amp;lt; &lt;b&gt;Block &lt;/b&gt;&amp;gt;&amp;gt;&lt;div&gt;&lt;br&gt;&lt;b&gt;Appointment&lt;/b&gt;&lt;/div&gt;" style="shape=rect;html=1;whiteSpace=wrap;align=center;verticalAlign=top;fillColor=#FFF2CC;" parent="1" vertex="1">
          <mxGeometry x="1519" y="1073" width="120" height="60" as="geometry" />
        </mxCell>
        <mxCell id="k6tlBCFo0J_A2OAQhTOj-34" value="&lt;font style=&quot;font-size: 12px;&quot;&gt;&lt;b&gt;&amp;lt;&amp;lt; Satisfy &amp;gt;&amp;gt;&lt;/b&gt;&lt;/font&gt;" style="edgeStyle=none;html=1;endArrow=open;endSize=12;dashed=1;verticalAlign=bottom;rounded=0;strokeWidth=2;" parent="1" source="k6tlBCFo0J_A2OAQhTOj-33" target="k6tlBCFo0J_A2OAQhTOj-7" edge="1">
          <mxGeometry x="-0.1046" y="7" width="160" relative="1" as="geometry">
            <mxPoint x="1661" y="1381" as="sourcePoint" />
            <mxPoint x="1520" y="1093.543918918919" as="targetPoint" />
            <mxPoint as="offset" />
          </mxGeometry>
        </mxCell>
        <mxCell id="k6tlBCFo0J_A2OAQhTOj-35" value="&lt;font style=&quot;font-size: 12px;&quot;&gt;&lt;b&gt;&amp;lt;&amp;lt; Satisfy &amp;gt;&amp;gt;&lt;/b&gt;&lt;/font&gt;" style="edgeStyle=none;html=1;endArrow=open;endSize=12;dashed=1;verticalAlign=bottom;rounded=0;strokeWidth=2;" parent="1" source="k6tlBCFo0J_A2OAQhTOj-16" target="k6tlBCFo0J_A2OAQhTOj-30" edge="1">
          <mxGeometry x="-0.3212" y="4" width="160" relative="1" as="geometry">
            <mxPoint x="1334" y="795" as="sourcePoint" />
            <mxPoint x="1489" y="886" as="targetPoint" />
            <mxPoint as="offset" />
          </mxGeometry>
        </mxCell>
        <mxCell id="OgSN6KcXYEPfYkLndB4I-2" value="&lt;font style=&quot;font-size: 12px;&quot;&gt;&lt;b&gt;&amp;lt;&amp;lt; Satisfy &amp;gt;&amp;gt;&lt;/b&gt;&lt;/font&gt;" style="edgeStyle=none;html=1;endArrow=open;endSize=12;dashed=1;verticalAlign=bottom;rounded=0;strokeWidth=2;" parent="1" target="k6tlBCFo0J_A2OAQhTOj-26" edge="1">
          <mxGeometry x="-0.3823" y="-6" width="160" relative="1" as="geometry">
            <mxPoint x="636.5714285714284" y="1052" as="sourcePoint" />
            <mxPoint x="434" y="978" as="targetPoint" />
            <mxPoint as="offset" />
          </mxGeometry>
        </mxCell>
        <mxCell id="Kk624B1LERDIwn-k9sA2-1" value="&amp;lt;&amp;lt; &lt;b&gt;Actor&amp;nbsp;&lt;/b&gt;&amp;gt;&amp;gt;&lt;div&gt;&lt;br&gt;&lt;b&gt;User&lt;/b&gt;&lt;/div&gt;" style="shape=rect;html=1;whiteSpace=wrap;align=center;verticalAlign=top;fillColor=#FFF2CC;" parent="1" vertex="1">
          <mxGeometry x="65" y="1032" width="120" height="60" as="geometry" />
        </mxCell>
        <mxCell id="Kk624B1LERDIwn-k9sA2-2" value="&lt;font style=&quot;font-size: 12px;&quot;&gt;&lt;b&gt;&amp;lt;&amp;lt; Satisfy &amp;gt;&amp;gt;&lt;/b&gt;&lt;/font&gt;" style="edgeStyle=none;html=1;endArrow=open;endSize=12;dashed=1;verticalAlign=bottom;rounded=0;strokeWidth=2;" parent="1" source="Kk624B1LERDIwn-k9sA2-1" target="k6tlBCFo0J_A2OAQhTOj-10" edge="1">
          <mxGeometry x="-0.375" width="160" relative="1" as="geometry">
            <mxPoint x="156" y="1080" as="sourcePoint" />
            <mxPoint x="156" y="996" as="targetPoint" />
            <mxPoint as="offset" />
          </mxGeometry>
        </mxCell>
        <mxCell id="iZoHA22_Y5u8gmJo2MV3-2" value="Display appointments" style="shape=ellipse;html=1;strokeWidth=3;fontStyle=1;whiteSpace=wrap;align=center;perimeter=ellipsePerimeter;fillColor=#CDA2BE;" parent="1" vertex="1">
          <mxGeometry x="1805.9999999999998" y="904" width="138" height="60" as="geometry" />
        </mxCell>
        <mxCell id="iZoHA22_Y5u8gmJo2MV3-3" value="&lt;font style=&quot;font-size: 12px;&quot;&gt;&lt;b&gt;&amp;lt;&amp;lt; Refine &amp;gt;&amp;gt;&lt;/b&gt;&lt;/font&gt;" style="edgeStyle=none;html=1;endArrow=open;endSize=12;dashed=1;verticalAlign=bottom;rounded=0;strokeWidth=2;" parent="1" source="iZoHA22_Y5u8gmJo2MV3-2" target="k6tlBCFo0J_A2OAQhTOj-7" edge="1">
          <mxGeometry x="-0.2659" y="-2" width="160" relative="1" as="geometry">
            <mxPoint x="1702.4299999999998" y="1020" as="sourcePoint" />
            <mxPoint x="1742.4299999999998" y="945" as="targetPoint" />
            <mxPoint as="offset" />
          </mxGeometry>
        </mxCell>
        <mxCell id="l1gCy3AUZsN4wNy_-pV3-3" value="" style="endArrow=circlePlus;html=1;rounded=0;strokeWidth=1;endFill=0;entryX=0.5;entryY=1;entryDx=0;entryDy=0;exitX=0.5;exitY=0;exitDx=0;exitDy=0;edgeStyle=orthogonalEdgeStyle;" edge="1" parent="1" source="l1gCy3AUZsN4wNy_-pV3-4" target="k6tlBCFo0J_A2OAQhTOj-5">
          <mxGeometry width="50" height="50" relative="1" as="geometry">
            <mxPoint x="202" y="1245" as="sourcePoint" />
            <mxPoint x="920" y="1155" as="targetPoint" />
          </mxGeometry>
        </mxCell>
        <mxCell id="l1gCy3AUZsN4wNy_-pV3-4" value="&lt;p style=&quot;margin:0px;margin-top:4px;text-align:center;&quot;&gt;&amp;lt;&amp;lt;requirement&amp;gt;&amp;gt;&lt;br&gt;&lt;b&gt;Inputs successfully validate&lt;/b&gt;&lt;/p&gt;&lt;hr&gt;&lt;p&gt;&lt;/p&gt;&lt;p style=&quot;margin:0px;margin-left:8px;text-align:left;&quot;&gt;&lt;b&gt;Text&amp;nbsp;&lt;/b&gt;= &quot;Inputs validated&quot;&lt;br&gt;&lt;b&gt;Id&amp;nbsp; &amp;nbsp; &amp;nbsp;&lt;/b&gt;= &quot;11.2.1&quot;&lt;/p&gt;" style="shape=rect;overflow=fill;html=1;whiteSpace=wrap;align=center;" vertex="1" parent="1">
          <mxGeometry x="216" y="1030" width="200" height="100" as="geometry" />
        </mxCell>
        <mxCell id="l1gCy3AUZsN4wNy_-pV3-6" value="" style="endArrow=circlePlus;html=1;rounded=0;strokeWidth=1;endFill=0;entryX=0.5;entryY=1;entryDx=0;entryDy=0;exitX=0.5;exitY=0;exitDx=0;exitDy=0;edgeStyle=orthogonalEdgeStyle;" edge="1" parent="1" source="l1gCy3AUZsN4wNy_-pV3-9" target="k6tlBCFo0J_A2OAQhTOj-5">
          <mxGeometry width="50" height="50" relative="1" as="geometry">
            <mxPoint x="534.5" y="1126" as="sourcePoint" />
            <mxPoint x="434" y="978" as="targetPoint" />
          </mxGeometry>
        </mxCell>
        <mxCell id="l1gCy3AUZsN4wNy_-pV3-7" value="&amp;lt;&amp;lt; &lt;b&gt;Block &lt;/b&gt;&amp;gt;&amp;gt;&lt;div&gt;&lt;br&gt;&lt;b&gt;Message controller&lt;/b&gt;&lt;/div&gt;" style="shape=rect;html=1;whiteSpace=wrap;align=center;verticalAlign=top;fillColor=#FFF2CC;" vertex="1" parent="1">
          <mxGeometry x="476.5" y="1213" width="120" height="60" as="geometry" />
        </mxCell>
        <mxCell id="l1gCy3AUZsN4wNy_-pV3-8" value="&lt;font style=&quot;font-size: 12px;&quot;&gt;&lt;b&gt;&amp;lt;&amp;lt; Satisfy &amp;gt;&amp;gt;&lt;/b&gt;&lt;/font&gt;" style="edgeStyle=none;html=1;endArrow=open;endSize=12;dashed=1;verticalAlign=bottom;rounded=0;strokeWidth=2;" edge="1" source="l1gCy3AUZsN4wNy_-pV3-7" parent="1" target="l1gCy3AUZsN4wNy_-pV3-9">
          <mxGeometry x="-0.3823" y="-6" width="160" relative="1" as="geometry">
            <mxPoint x="345.5" y="1225" as="sourcePoint" />
            <mxPoint x="558.5" y="1144" as="targetPoint" />
            <mxPoint as="offset" />
          </mxGeometry>
        </mxCell>
        <mxCell id="l1gCy3AUZsN4wNy_-pV3-9" value="&lt;p style=&quot;margin:0px;margin-top:4px;text-align:center;&quot;&gt;&amp;lt;&amp;lt;requirement&amp;gt;&amp;gt;&lt;br&gt;&lt;b&gt;User notified if invalid input&lt;/b&gt;&lt;/p&gt;&lt;hr&gt;&lt;p&gt;&lt;/p&gt;&lt;p style=&quot;margin:0px;margin-left:8px;text-align:left;&quot;&gt;&lt;b&gt;Text&amp;nbsp;&lt;/b&gt;= &quot;User should be notified if the provided input is wrong&quot;&lt;br&gt;&lt;b&gt;Id&amp;nbsp; &amp;nbsp; &amp;nbsp;&lt;/b&gt;= &quot;11.2.2&quot;&lt;/p&gt;" style="shape=rect;overflow=fill;html=1;whiteSpace=wrap;align=center;" vertex="1" parent="1">
          <mxGeometry x="436.5" y="1030" width="200" height="103" as="geometry" />
        </mxCell>
        <mxCell id="l1gCy3AUZsN4wNy_-pV3-10" value="&amp;lt;&amp;lt; &lt;b&gt;Block &lt;/b&gt;&amp;gt;&amp;gt;&lt;div&gt;&lt;br&gt;&lt;b&gt;Message&lt;/b&gt;&lt;/div&gt;" style="shape=rect;html=1;whiteSpace=wrap;align=center;verticalAlign=top;fillColor=#FFF2CC;" vertex="1" parent="1">
          <mxGeometry x="1333" y="894.5" width="120" height="60" as="geometry" />
        </mxCell>
        <mxCell id="l1gCy3AUZsN4wNy_-pV3-11" value="&lt;font style=&quot;font-size: 12px;&quot;&gt;&lt;b&gt;&amp;lt;&amp;lt; Satisfy &amp;gt;&amp;gt;&lt;/b&gt;&lt;/font&gt;" style="edgeStyle=none;html=1;endArrow=open;endSize=12;dashed=1;verticalAlign=bottom;rounded=0;strokeWidth=2;" edge="1" parent="1" source="l1gCy3AUZsN4wNy_-pV3-10" target="k6tlBCFo0J_A2OAQhTOj-30">
          <mxGeometry x="-0.1866" y="-3" width="160" relative="1" as="geometry">
            <mxPoint x="1290" y="797" as="sourcePoint" />
            <mxPoint x="1190" y="878" as="targetPoint" />
            <mxPoint as="offset" />
          </mxGeometry>
        </mxCell>
      </root>
    </mxGraphModel>
  </diagram>
</mxfile>
